<svg id="Calque_1" data-name="Calque 1" xmlns="http://www.w3.org/2000/svg" viewBox="0 0 500 500">
    <defs>
        <style>
            .cls-1 {
                fill: #3e5c4a;
            }
        </style>
    </defs>
    <title>game</title>
    <path class="cls-1"
        d="M272,167V141.75a72.56,72.56,0,1,0-43.71,0V166L25.5,283.22v87.41L249.27,500,473.05,370.63V283.22ZM203.82,72.55a46.33,46.33,0,1,1,46.33,46.33A46.38,46.38,0,0,1,203.82,72.55Zm24.8,210.67c0,.08,0,.17,0,.26,0,6.61,9.71,12,21.7,12s21.7-5.36,21.7-12c0-.09,0-.18,0-.26h0V268c8.73,4.05,14,10.25,14,16.06,0,9.72-14.72,20.55-35.84,20.55s-35.84-10.83-35.84-20.55c0-5.81,5.25-12,14-16.06v15.19Zm-.33-97.05v63.12c-18.7,5.84-31.46,19.06-31.46,34.8,0,21.33,23.42,38,53.32,38s53.32-16.71,53.32-38c0-15.74-12.77-29-31.47-34.8V187.18l166.12,96L249.27,392.39,60.43,283.22Zm3.5,283.53L43,360.54v-47L231.79,422.67ZM455.57,360.54,266.76,469.7v-47L455.57,313.52Z" />
    <path class="cls-1"
        d="M170.39,264.84c0-8.15-10.09-14.75-22.5-14.75-12.11,0-22,6.29-22.47,14.17-8.22,4.27-13.51,10.87-13.51,18.29,0,12.87,15.89,23.31,35.47,23.31s35.46-10.44,35.46-23.31C182.84,275.46,178,269.1,170.39,264.84Zm-.09,1.26v1.84h-.4A9.58,9.58,0,0,0,170.3,266.1ZM148,294.44c-12.41,0-22.5-6.63-22.5-14.79a7.48,7.48,0,0,1,.07-1V266.55c1.26,7.37,10.78,13.1,22.34,13.1,10.77,0,19.76-5,22-11.61.15.08.3.16.44.25v9.59a9.57,9.57,0,0,1,.18,1.77C170.48,287.81,160.41,294.44,148,294.44Z" />
</svg>