<?xml version="1.0" encoding="utf-8"?>
<!-- Generator: Adobe Illustrator 24.0.1, SVG Export Plug-In . SVG Version: 6.00 Build 0)  -->
<svg version="1.1" id="Calque_1" xmlns="http://www.w3.org/2000/svg" xmlns:xlink="http://www.w3.org/1999/xlink" x="0px" y="0px"
	 viewBox="0 0 487.9 503.4" style="enable-background:new 0 0 487.9 503.4;" xml:space="preserve">
<style type="text/css">
	.st0{fill:#608B72;}
</style>
<title>moon</title>
<path class="st0" d="M238,503.4c-107.9,0-203.2-68.7-237.3-171c-2.1-6.4,0.8-13.5,6.9-16.5c6.1-3,13.4-1.1,17.3,4.6
	c22.3,32.9,59.3,52.5,99,52.5c65.9,0,119.6-53.6,119.6-119.6s-53.6-119.6-119.6-119.6c-39.7,0-76.7,19.6-99,52.5
	c-3.8,5.6-11.2,7.6-17.3,4.6c-6.1-3-9-10-6.9-16.5C34.7,72.1,130.1,3.4,238,3.4c137.9,0,250,112.1,250,250S375.8,503.4,238,503.4z
	 M57.5,384.3C98.6,441,165.1,476.2,238,476.2c122.9,0,222.8-100,222.8-222.8c0-122.9-100-222.8-222.8-222.8
	c-72.9,0-139.4,35.2-180.5,91.9c20.3-10.3,42.9-15.8,66.3-15.8c80.9,0,146.7,65.8,146.7,146.7c0,80.9-65.8,146.7-146.7,146.7
	C100.4,400.1,77.8,394.5,57.5,384.3z"/>
</svg>
