<svg id="Calque_1" data-name="Calque 1" xmlns="http://www.w3.org/2000/svg" viewBox="0 0 500 500">
    <defs>
        <style>
            .cls-1 {
                fill: #3e5c4a;
            }
        </style>
    </defs>
    <title>people</title>
    <path class="cls-1"
        d="M169.1,324.13a91.88,91.88,0,1,0-91.88-91.87A92,92,0,0,0,169.1,324.13Zm0-155.26a63.39,63.39,0,1,1-63.39,63.39A63.45,63.45,0,0,1,169.1,168.87Z" />
    <path class="cls-1"
        d="M496,338.38a162.26,162.26,0,0,0-78.89-139.29l-14.66,24.42a132.85,132.85,0,0,1,64.32,100.62H278.11a163.49,163.49,0,0,0-26.23-19.63l-14.67,24.42a132.82,132.82,0,0,1,64.33,100.62H35.26a134.69,134.69,0,0,1,65.07-101.08L85.82,303.94A163.2,163.2,0,0,0,6,443.78V458H330.77V443.78A162.3,162.3,0,0,0,309,362.59c-2-3.41-4.07-6.72-6.28-10H496Z" />
    <path class="cls-1"
        d="M334.33,218.72a91.88,91.88,0,1,0-91.88-91.87A92,92,0,0,0,334.33,218.72Zm0-155.26a63.39,63.39,0,1,1-63.39,63.39A63.47,63.47,0,0,1,334.33,63.46Z" />
</svg>