<?xml version="1.0" encoding="utf-8"?>
<!-- Generator: Adobe Illustrator 24.0.1, SVG Export Plug-In . SVG Version: 6.00 Build 0)  -->
<svg version="1.1" id="Calque_1" xmlns="http://www.w3.org/2000/svg" xmlns:xlink="http://www.w3.org/1999/xlink" x="0px" y="0px"
	 viewBox="0 0 496 496" style="enable-background:new 0 0 496 496;" xml:space="preserve">
<style type="text/css">
	.st0{fill:#3E5C4A;}
</style>
<title>sun</title>
<path class="st0" d="M248,363.2c-63.6,0-115.2-51.6-115.2-115.2S184.4,132.8,248,132.8S363.2,184.4,363.2,248
	C363.2,311.6,311.6,363.2,248,363.2z M248,157.8c-49.8,0-90.2,40.4-90.2,90.2s40.4,90.2,90.2,90.2s90.2-40.4,90.2-90.2c0,0,0,0,0,0
	C338.1,198.2,297.8,157.9,248,157.8z"/>
<path class="st0" d="M248,105.2c-6.9,0-12.5-5.6-12.5-12.5V12.5C235.5,5.6,241.1,0,248,0c6.9,0,12.5,5.6,12.5,12.5c0,0,0,0,0,0v80.2
	C260.5,99.6,254.9,105.2,248,105.2z"/>
<path class="st0" d="M357.8,150.7c-6.9,0-12.5-5.7-12.5-12.6c0-3.3,1.3-6.5,3.7-8.8l56.7-56.7c4.9-4.9,12.8-4.9,17.7,0
	c4.9,4.9,4.9,12.8,0,17.7L366.7,147C364.3,149.4,361.1,150.7,357.8,150.7z"/>
<path class="st0" d="M483.5,260.5h-80.2c-6.9,0-12.5-5.6-12.5-12.5c0-6.9,5.6-12.5,12.5-12.5h80.2c6.9,0,12.5,5.6,12.5,12.5
	C496,254.9,490.4,260.5,483.5,260.5z"/>
<path class="st0" d="M414.5,427c-3.3,0-6.5-1.3-8.9-3.7L349,366.7c-4.6-5.1-4.2-13.1,1-17.7c4.8-4.3,12-4.3,16.7,0l56.7,56.7
	c4.9,4.9,4.8,12.9-0.1,17.7C420.9,425.7,417.8,427,414.5,427z"/>
<path class="st0" d="M248,496c-6.9,0-12.5-5.6-12.5-12.5v-80.2c0-6.9,5.6-12.5,12.5-12.5c6.9,0,12.5,5.6,12.5,12.5v80.2
	C260.5,490.4,254.9,496,248,496z"/>
<path class="st0" d="M81.5,427c-6.9,0-12.5-5.6-12.5-12.6c0-3.3,1.3-6.5,3.7-8.8l56.7-56.6c5.1-4.6,13.1-4.2,17.7,1
	c4.3,4.8,4.3,12,0,16.7l-56.7,56.7C88,425.7,84.8,427,81.5,427z"/>
<path class="st0" d="M92.7,260.5H12.5C5.6,260.5,0,254.9,0,248c0-6.9,5.6-12.5,12.5-12.5h80.2c6.9,0,12.5,5.6,12.5,12.5
	C105.2,254.9,99.6,260.5,92.7,260.5z"/>
<path class="st0" d="M138.2,150.7c-3.3,0-6.5-1.3-8.9-3.7L72.6,90.3c-4.9-4.9-4.9-12.8,0-17.7s12.8-4.9,17.7,0l56.7,56.7
	c4.9,4.9,4.9,12.8,0,17.7C144.6,149.4,141.5,150.7,138.2,150.7L138.2,150.7z"/>
</svg>
