<?xml version="1.0" encoding="utf-8"?>
<!-- Generator: Adobe Illustrator 24.0.1, SVG Export Plug-In . SVG Version: 6.00 Build 0)  -->
<svg version="1.1" id="Calque_1" xmlns="http://www.w3.org/2000/svg" xmlns:xlink="http://www.w3.org/1999/xlink" x="0px" y="0px"
	 viewBox="0 0 627.5 422.6" style="enable-background:new 0 0 627.5 422.6;" xml:space="preserve">
<style type="text/css">
	.st0{fill:#0C0C0C;}
	.st1{display:none;fill:#A4FAAC;}
	.st2{display:none;fill:#0C0C0C;}
</style>
<title>wizz</title>
<path class="st0" d="M321.7,45c-91.8,0-166.3,74.4-166.3,166.3s74.4,166.3,166.3,166.3s166.3-74.4,166.3-166.3S413.5,45,321.7,45z
	 M189.1,181.1c0-31.3,25.4-56.7,56.7-56.7s56.7,25.4,56.7,56.7s-25.4,56.7-56.7,56.7S189.1,212.4,189.1,181.1z M409.7,314
	c-1-1.4-27.3-36.5-83.5-8.5c-19.2,9.5-35.9,12.9-50,12.9c-13.2,0-24-2.9-32.3-6.5c-18.8-8-28.6-20.8-29-21.4l8-6l8-6.1
	c1.2,1.5,29.8,37.3,86.4,9.1c37.2-18.5,64.6-13.8,81.1-6.5c18.2,8,27.4,20.9,27.8,21.5L409.7,314z M399.9,237.8
	c-31.3,0-56.7-25.4-56.7-56.7s25.4-56.7,56.7-56.7s56.7,25.4,56.7,56.7S431.3,237.8,399.9,237.8z"/>
<path class="st1" d="M273.4,321.4c-6.7,0-13.4-1-19.8-3.1c-16.9-5.6-25.7-16.4-26.7-17.6c-3.4-4.4-2.6-10.7,1.8-14
	c4.3-3.3,10.5-2.6,13.9,1.6c1.1,1.4,25.5,30,72.4-2c32.7-22.4,58.7-18.3,74.8-10.9c10.7,5,20,12.5,27.1,22
	c3.1,4.6,1.9,10.8-2.6,13.9c-4.5,3.1-10.7,1.9-13.8-2.5c-5.2-6.7-12-12-19.7-15.5c-16.4-7.2-34.7-4-54.5,9.6
	C305.4,316.9,287.5,321.4,273.4,321.4z"/>
<circle class="st0" cx="399.9" cy="198.6" r="25.9"/>
<circle class="st0" cx="245.8" cy="165.3" r="25.9"/>
<path class="st2" d="M470,387.6c-5.5,0-10-4.5-10-10c0-3.1,1.4-6.1,3.9-8c87.4-67,104-192.1,37.1-279.5
	c-10.7-13.9-23.1-26.4-37.1-37.1c-4.2-3.5-4.8-9.8-1.3-14.1c3.3-4,9.2-4.8,13.4-1.8c26.3,20.2,47.7,46,62.6,75.5
	c31.2,62.1,31.2,135.3,0,197.4c-15,29.5-36.4,55.3-62.6,75.5C474.3,386.8,472.2,387.6,470,387.6z"/>
<path class="st2" d="M156.6,387.6c-2.2,0-4.3-0.7-6.1-2.1c-26.3-20.2-47.6-46-62.6-75.5c-31.2-62.1-31.2-135.3,0-197.4
	c15-29.5,36.4-55.3,62.6-75.5c4.4-3.3,10.7-2.3,14,2.1c3.2,4.3,2.4,10.4-1.8,13.7c-87.4,66.9-104.1,192.1-37.1,279.5
	c10.7,14,23.2,26.4,37.1,37.1c4.4,3.4,5.2,9.6,1.9,14C162.6,386.1,159.7,387.6,156.6,387.6L156.6,387.6z"/>
<path class="st0" d="M470.1,396.7l-15.7-25.6c0.2-0.1,21.4-13.4,42.1-39.9c27.4-34.9,41.4-75.3,41.4-120c0-44.7-13.9-85-41.2-119.9
	c-20.7-26.4-41.8-39.6-42-39.8l15.7-25.6c1,0.6,25.1,15.6,49.1,45.8c22.1,27.8,48.4,74.6,48.4,139.4c0,64.8-26.4,111.7-48.6,139.6
	C495.3,381.1,471.1,396.1,470.1,396.7z"/>
<path class="st0" d="M164.9,396.6c-1-0.6-25.1-15.6-49.1-45.8C93.8,323,67.5,276.2,67.5,211.4c0-64.8,26.4-111.7,48.6-139.6
	c24-30.2,48.2-45.2,49.2-45.9l15.7,25.6c-0.2,0.1-21.4,13.4-42.1,39.9c-27.4,34.9-41.4,75.3-41.4,120c0,44.7,13.9,85,41.2,119.9
	c20.7,26.4,41.8,39.6,42,39.8L164.9,396.6z"/>
</svg>
