<svg id="Calque_1" data-name="Calque 1" xmlns="http://www.w3.org/2000/svg" viewBox="0 0 627.51 352.51"><defs><style>.cls-1{fill:#ffe235;}.cls-2{fill:#fff;}.cls-3{fill:#539fd7;}.cls-4{fill:#2d6ab0;}</style></defs><title>wizz</title><circle class="cls-1" cx="321.67" cy="176.26" r="166.26"/><path d="M351.7,366.22a63.14,63.14,0,0,1-19.83-3.12c-16.85-5.56-25.74-16.43-26.7-17.65a10,10,0,0,1,15.69-12.4c1.15,1.4,25.49,30,72.38-2,32.73-22.36,58.74-18.27,74.81-10.9a71.72,71.72,0,0,1,27.14,22,10,10,0,0,1-16.46,11.36A52.15,52.15,0,0,0,459,338c-16.36-7.18-34.69-4-54.49,9.56C383.69,361.77,365.85,366.22,351.7,366.22Z" transform="translate(-78.33 -79.91)"/><circle class="cls-2" cx="399.94" cy="146.04" r="56.71"/><circle cx="399.94" cy="163.59" r="25.91"/><circle class="cls-2" cx="245.81" cy="146.04" r="56.71"/><circle cx="245.81" cy="130.26" r="25.91"/><path class="cls-3" d="M548.29,432.42a10,10,0,0,1-6.09-17.94,199.4,199.4,0,0,0,0-316.63A10,10,0,0,1,554.37,82,221.49,221.49,0,0,1,617,157.48a219.79,219.79,0,0,1,0,197.37,221.49,221.49,0,0,1-62.6,75.51A10,10,0,0,1,548.29,432.42Z" transform="translate(-78.33 -79.91)"/><path class="cls-3" d="M234.88,432.42a9.94,9.94,0,0,1-6.07-2.06,221.4,221.4,0,0,1-62.61-75.51,219.79,219.79,0,0,1,0-197.37A221.4,221.4,0,0,1,228.81,82,10,10,0,0,1,241,97.85a199.38,199.38,0,0,0,0,316.63,10,10,0,0,1-6.1,17.94Z" transform="translate(-78.33 -79.91)"/><path class="cls-4" d="M630.39,432.42a10,10,0,0,1-7.31-16.82,233.88,233.88,0,0,0,0-318.87A10,10,0,0,1,637.7,83.09a253.89,253.89,0,0,1,0,346.15A10,10,0,0,1,630.39,432.42Z" transform="translate(-78.33 -79.91)"/><path class="cls-4" d="M153.8,432.42a10,10,0,0,1-7.31-3.18,253.81,253.81,0,0,1,0-346.15,10,10,0,1,1,14.62,13.64,233.83,233.83,0,0,0,0,318.87,10,10,0,0,1-7.31,16.82Z" transform="translate(-78.33 -79.91)"/></svg>